<svg width="146" height="55" viewBox="0 0 146 55" fill="none" xmlns="http://www.w3.org/2000/svg">
<g clip-path="url(#clip0_126_2101)">
<path d="M137.06 40.3545C136.822 39.352 136.335 38.5458 135.599 37.9394C134.864 37.333 133.967 37.0289 132.912 37.0289C131.805 37.0289 130.896 37.3208 130.187 37.9011C129.502 38.4815 129.068 39.2998 128.884 40.3563H137.063H137.06V40.3545ZM128.685 44.5124C128.685 47.6017 130.133 49.1446 133.032 49.1446C134.584 49.1446 135.757 48.5104 136.546 47.2438H143.46C142.066 51.8881 138.574 54.2112 132.992 54.2112C131.28 54.2112 129.712 53.961 128.289 53.4588C126.867 52.9324 125.644 52.1905 124.614 51.2418C123.613 50.2931 122.835 49.1568 122.282 47.838C121.731 46.5175 121.455 45.0406 121.455 43.4039C121.455 41.7671 121.718 40.1964 122.244 38.8516C122.77 37.4807 123.521 36.3165 124.494 35.3678C125.467 34.4192 126.64 33.6929 128.008 33.1907C129.403 32.6608 130.971 32.3984 132.707 32.3984C134.444 32.3984 135.962 32.6625 137.33 33.1907C138.699 33.6929 139.859 34.4313 140.806 35.4078C141.754 36.3843 142.479 37.5849 142.98 39.0114C143.481 40.4101 143.731 41.993 143.731 43.7635V44.5159H128.678L128.681 44.5124H128.685Z" fill="white"/>
<path d="M119.304 40.2329V54.2112C119.241 54.2112 119.134 54.2112 118.992 54.2025C118.027 54.166 115.425 53.8637 113.625 51.6258C113.571 51.558 113.517 51.4902 113.467 51.4225C112.591 50.2479 112.152 48.8023 112.152 47.3358V42.8878C112.152 41.8853 112.074 41.0791 111.914 40.4727C111.784 39.8385 111.534 39.3398 111.167 38.9697C110.849 38.6517 110.493 38.4276 110.098 38.2938C109.702 38.1635 109.281 38.0975 108.833 38.0975C107.623 38.0975 106.688 38.4658 106.03 39.2043C105.397 39.9184 105.08 40.947 105.08 42.2936V54.2129C105.017 54.2129 104.91 54.2129 104.767 54.2042C103.803 54.1678 101.204 53.8654 99.4022 51.6275C99.3484 51.5597 99.2946 51.492 99.2443 51.4242C98.3683 50.2497 97.9294 48.804 97.9294 47.3376V32.4019H105.078V35.4078C106.055 34.2211 107.04 33.4288 108.041 33.0326C109.042 32.6104 110.214 32.3984 111.559 32.3984C112.981 32.3984 114.192 32.6365 115.193 33.1091C116.22 33.5591 117.087 34.2037 117.8 35.0481C118.379 35.7362 118.773 36.5007 118.985 37.3451C119.196 38.1896 119.302 39.1539 119.302 40.2346L119.304 40.2329Z" fill="white"/>
<path d="M78.2725 43.204C78.2725 43.8904 78.3922 44.5245 78.6281 45.1049C78.8918 45.6591 79.2213 46.1457 79.6168 46.5696C80.0384 46.9918 80.5258 47.3219 81.0774 47.56C81.6568 47.798 82.2622 47.9162 82.8936 47.9162C83.525 47.9162 84.1165 47.7963 84.6716 47.56C85.251 47.3219 85.7367 46.9918 86.1322 46.5696C86.5537 46.1474 86.8833 45.6591 87.1209 45.1049C87.3846 44.5245 87.5164 43.9025 87.5164 43.2457C87.5164 42.589 87.3863 42.0191 87.1209 41.463C86.8833 40.8827 86.5537 40.3806 86.1322 39.9584C85.7367 39.5361 85.251 39.206 84.6716 38.968C84.12 38.7299 83.525 38.6118 82.8936 38.6118C82.2622 38.6118 81.6551 38.7317 81.0774 38.968C80.5258 39.206 80.0384 39.5361 79.6168 39.9584C79.2213 40.3806 78.8918 40.8688 78.6281 41.4231C78.3905 41.9774 78.2725 42.5716 78.2725 43.2058V43.204ZM70.7285 43.1241C70.7285 41.6194 71.0321 40.2207 71.6375 38.9298C72.2429 37.611 73.0859 36.4746 74.1666 35.526C75.2473 34.5495 76.524 33.7832 78.0002 33.229C79.5024 32.6747 81.1347 32.3984 82.8988 32.3984C84.6629 32.3984 86.2449 32.6747 87.7176 33.229C89.2198 33.7554 90.5087 34.5078 91.5894 35.4843C92.6961 36.4329 93.5513 37.5814 94.1584 38.9298C94.7638 40.2503 95.0673 41.715 95.0673 43.3239C95.0673 44.9329 94.7534 46.4132 94.1202 47.7581C93.5148 49.0786 92.6718 50.2253 91.5911 51.2036C90.5104 52.1522 89.2077 52.8942 87.6812 53.4206C86.179 53.9471 84.5467 54.2129 82.7826 54.2129C81.0184 54.2129 79.4364 53.9488 77.9637 53.4206C76.4875 52.8942 75.2108 52.1418 74.1302 51.1653C73.0755 50.1888 72.2481 49.0282 71.6427 47.6816C71.0373 46.3107 70.7337 44.7921 70.7337 43.1293L70.7303 43.1258L70.7285 43.1241Z" fill="white"/>
<path d="M117.243 15.3405V31.1797C114.903 29.6368 112.835 29.4804 110.095 29.5464V15.3405V14.258V0H117.243V9.36346H120.008L123.408 15.4726L117.247 15.344L117.243 15.3405Z" fill="white"/>
<path d="M78.0782 9.36719L82.8971 19.7801L87.7957 9.36719H95.7768L85.2284 29.677H80.4478L70.0173 9.36719H78.0782Z" fill="white"/>
<path d="M51.6681 19.4592C51.6681 20.1194 51.7878 20.738 52.0237 21.3183C52.2614 21.8726 52.5754 22.3591 52.9709 22.7831C53.3924 23.2053 53.8798 23.5354 54.4314 23.7734C55.0108 24.0115 55.6301 24.1314 56.2892 24.1314C56.9484 24.1314 57.5122 24.0115 58.0673 23.7734C58.6466 23.5354 59.1323 23.2053 59.5278 22.7831C59.9493 22.3608 60.2789 21.8726 60.5166 21.3183C60.7802 20.7641 60.9121 20.1698 60.9121 19.5356C60.9121 18.9014 60.782 18.309 60.5166 17.7529C60.2789 17.1726 59.9493 16.6705 59.5278 16.2483C59.1323 15.826 58.6466 15.4959 58.0673 15.2579C57.5156 15.0198 56.9206 14.9017 56.2892 14.9017C55.6578 14.9017 55.0125 15.0198 54.4314 15.2579C53.8798 15.4959 53.3924 15.826 52.9709 16.2483C52.5754 16.6705 52.2579 17.1587 52.0237 17.713C51.7861 18.2395 51.6681 18.8233 51.6681 19.454V19.4592ZM60.6762 9.36423H67.8663V29.674H60.6762V27.4187C59.1462 29.3474 57.0802 30.3082 54.4731 30.3082C52.9969 30.3082 51.6404 30.0441 50.4018 29.5159C49.1633 28.9617 48.0826 28.1954 47.1633 27.2189C46.2422 26.2424 45.5188 25.0939 44.9897 23.7734C44.4884 22.4529 44.2386 21.016 44.2386 19.4592C44.2386 18.0066 44.4884 16.6357 44.9897 15.3413C45.4893 14.0208 46.1884 12.874 47.0835 11.8958C47.9803 10.9193 49.0454 10.1548 50.2839 9.59879C51.5224 9.01846 52.8911 8.72656 54.3933 8.72656C56.9224 8.72656 59.0161 9.61096 60.6762 11.3797V9.35902V9.36249V9.36423Z" fill="white"/>
<path d="M26.88 9.36407H34.0285V12.6897C34.7918 11.4751 35.7267 10.5508 36.8334 9.92007C37.9401 9.25982 39.229 8.92969 40.7052 8.92969H41.2984C41.5361 8.92969 41.798 8.95575 42.0877 9.00961V15.8589C41.1406 15.3828 40.1136 15.1448 39.0052 15.1448C37.3452 15.1448 36.0962 15.6469 35.2532 16.6495C34.4362 17.6259 34.0302 19.0646 34.0302 20.9637V29.6721H26.8818V9.36407H26.8783H26.88Z" fill="white"/>
<path d="M7.43467 19.4218C7.43467 20.082 7.55263 20.7006 7.79027 21.2809C8.02792 21.8352 8.34189 22.3217 8.73739 22.7456C9.15891 23.1678 9.64634 23.498 10.198 23.736C10.7773 23.974 11.3966 24.0939 12.054 24.0939C12.7115 24.0939 13.277 23.974 13.832 23.736C14.4114 23.498 14.8971 23.1678 15.2926 22.7456C15.7141 22.3234 16.0437 21.8352 16.2814 21.2809C16.545 20.7006 16.6769 20.0942 16.6769 19.46C16.6769 18.8258 16.5468 18.1933 16.2814 17.6391C16.0437 17.0848 15.7141 16.5983 15.2926 16.1761C14.8711 15.7539 14.3715 15.4237 13.7904 15.1857C13.2388 14.9477 12.6594 14.8295 12.054 14.8295C11.4486 14.8295 10.8276 14.9598 10.276 15.2257C9.7244 15.4637 9.23697 15.7938 8.81545 16.216C8.39393 16.6122 8.0522 17.0883 7.78854 17.6408C7.55089 18.1951 7.43293 18.7893 7.43293 19.4235H7.4364L7.43467 19.4218ZM23.4732 9.36503V28.2918C23.4732 29.4246 23.4073 30.4428 23.2737 31.3411C23.1436 32.2394 22.9598 33.0317 22.7221 33.7146C22.4081 34.5868 21.9051 35.3895 21.2199 36.1297C20.5607 36.8942 19.7593 37.5545 18.8087 38.1087C17.8616 38.663 16.7809 39.0991 15.5702 39.4153C14.3854 39.7333 13.0948 39.8914 11.6984 39.8914C10.1182 39.8914 8.66974 39.6916 7.35141 39.2954C6.03308 38.8993 4.87607 38.3468 3.87517 37.6326C2.90204 36.9446 2.09716 36.128 1.46402 35.1775C0.83087 34.2514 0.409351 33.2385 0.199459 32.1282H8.26036C8.76167 33.473 9.89266 34.1489 11.6568 34.1489C13.159 34.1489 14.3056 33.7267 15.0949 32.8805C15.9119 32.0361 16.3178 30.8598 16.3178 29.3569V27.4178C15.7922 27.9199 15.2787 28.3404 14.7774 28.6844C14.3021 29.0007 13.8147 29.2648 13.3169 29.4768C12.8155 29.6887 12.2899 29.8347 11.7366 29.9111C11.185 30.0189 10.5778 30.0692 9.92042 30.0692C8.47199 30.0692 7.14151 29.819 5.93073 29.3169C4.71995 28.8148 3.66528 28.1145 2.76847 27.2197C1.89941 26.3214 1.21596 25.2529 0.714649 24.0123C0.239356 22.7456 0.00170898 21.3469 0.00170898 19.8179C0.00170898 18.2889 0.265375 16.8224 0.790973 15.5037C1.31657 14.1588 2.02951 12.9947 2.92632 12.02C3.84742 11.0174 4.92811 10.2373 6.16491 9.68473C7.42947 9.1044 8.7981 8.8125 10.2743 8.8125C12.6698 8.8125 14.6855 9.71079 16.3195 11.5056V9.36677H23.4749L23.4732 9.36503Z" fill="white"/>
<path d="M105.08 9.24219V29.552H97.9312V9.24219H105.08Z" fill="white"/>
<path d="M105.08 0C104.937 0.752344 104.587 2.05027 103.607 3.26653C101.805 5.50445 99.2044 5.80677 98.24 5.84326C98.0977 5.84847 97.9902 5.84847 97.9277 5.84847V0H105.08Z" fill="white"/>
<path d="M146 9.32031L135.611 29.2183L134.95 30.5354C132.069 30.1045 129.366 30.5197 127.481 31.3155L131.079 25.3802L122.346 9.32031H129.151L134.317 18.7741L139.36 9.32031H146Z" fill="white"/>
</g>
<defs>
<clipPath id="clip0_126_2101">
<rect width="146" height="54.2122" fill="white"/>
</clipPath>
</defs>
</svg>
